<svg xmlns="http://www.w3.org/2000/svg" width="835" height="185" viewBox="0 0 835 185">
  <defs>
    <linearGradient id="bg-gradient" x1="0" y1="0" x2="0" y2="1">
      <stop offset="0%" stop-color="#0a0a0a" />
      <stop offset="100%" stop-color="#141414" />
    </linearGradient>
    
  </defs>
  <style>
    
  </style>
  <rect width="835" height="185" fill="url(#bg-gradient)" rx="4" ry="4" />
  <rect x="20" y="20" width="11" height="11" rx="2" ry="2" fill="#1a1a1a" />
  <rect x="20" y="35" width="11" height="11" rx="2" ry="2" fill="#1a1a1a" />
  <rect x="20" y="50" width="11" height="11" rx="2" ry="2" fill="#1a1a1a" />
  <rect x="20" y="65" width="11" height="11" rx="2" ry="2" fill="#1a1a1a" />
  <rect x="20" y="80" width="11" height="11" rx="2" ry="2" fill="#1a1a1a" />
  <rect x="20" y="95" width="11" height="11" rx="2" ry="2" fill="#1a1a1a" />
  <rect x="20" y="110" width="11" height="11" rx="2" ry="2" fill="#1a1a1a" />
  <rect x="35" y="20" width="11" height="11" rx="2" ry="2" fill="#1a1a1a" />
  <rect x="35" y="35" width="11" height="11" rx="2" ry="2" fill="#1a1a1a" />
  <rect x="35" y="50" width="11" height="11" rx="2" ry="2" fill="#1a1a1a" />
  <rect x="35" y="65" width="11" height="11" rx="2" ry="2" fill="#1a1a1a" />
  <rect x="35" y="80" width="11" height="11" rx="2" ry="2" fill="#1a1a1a" />
  <rect x="35" y="95" width="11" height="11" rx="2" ry="2" fill="#1a1a1a" />
  <rect x="35" y="110" width="11" height="11" rx="2" ry="2" fill="#1a1a1a" />
  <rect x="50" y="20" width="11" height="11" rx="2" ry="2" fill="#1a1a1a" />
  <rect x="50" y="35" width="11" height="11" rx="2" ry="2" fill="#1a1a1a" />
  <rect x="50" y="50" width="11" height="11" rx="2" ry="2" fill="#1a1a1a" />
  <rect x="50" y="65" width="11" height="11" rx="2" ry="2" fill="#1a1a1a" />
  <rect x="50" y="80" width="11" height="11" rx="2" ry="2" fill="#1a1a1a" />
  <rect x="50" y="95" width="11" height="11" rx="2" ry="2" fill="#1a1a1a" />
  <rect x="50" y="110" width="11" height="11" rx="2" ry="2" fill="#1a1a1a" />
  <rect x="65" y="20" width="11" height="11" rx="2" ry="2" fill="#1a1a1a" />
  <rect x="65" y="35" width="11" height="11" rx="2" ry="2" fill="#1a1a1a" />
  <rect x="65" y="50" width="11" height="11" rx="2" ry="2" fill="#1a1a1a" />
  <rect x="65" y="65" width="11" height="11" rx="2" ry="2" fill="#1a1a1a" />
  <rect x="65" y="80" width="11" height="11" rx="2" ry="2" fill="#1a1a1a" />
  <rect x="65" y="95" width="11" height="11" rx="2" ry="2" fill="#1a1a1a" />
  <rect x="65" y="110" width="11" height="11" rx="2" ry="2" fill="#1a1a1a" />
  <rect x="80" y="20" width="11" height="11" rx="2" ry="2" fill="#1a1a1a" />
  <rect x="80" y="35" width="11" height="11" rx="2" ry="2" fill="#1a1a1a" />
  <rect x="80" y="50" width="11" height="11" rx="2" ry="2" fill="#1a1a1a" />
  <rect x="80" y="65" width="11" height="11" rx="2" ry="2" fill="#1a1a1a" />
  <rect x="80" y="80" width="11" height="11" rx="2" ry="2" fill="#1a1a1a" />
  <rect x="80" y="95" width="11" height="11" rx="2" ry="2" fill="#1a1a1a" />
  <rect x="80" y="110" width="11" height="11" rx="2" ry="2" fill="#1a1a1a" />
  <rect x="95" y="20" width="11" height="11" rx="2" ry="2" fill="#1a1a1a" />
  <rect x="95" y="35" width="11" height="11" rx="2" ry="2" fill="#1a1a1a" />
  <rect x="95" y="50" width="11" height="11" rx="2" ry="2" fill="#1a1a1a" />
  <rect x="95" y="65" width="11" height="11" rx="2" ry="2" fill="#1a1a1a" />
  <rect x="95" y="80" width="11" height="11" rx="2" ry="2" fill="#1a1a1a" />
  <rect x="95" y="95" width="11" height="11" rx="2" ry="2" fill="#1a1a1a" />
  <rect x="95" y="110" width="11" height="11" rx="2" ry="2" fill="#1a1a1a" />
  <rect x="110" y="20" width="11" height="11" rx="2" ry="2" fill="#1a1a1a" />
  <rect x="110" y="35" width="11" height="11" rx="2" ry="2" fill="#1a1a1a" />
  <rect x="110" y="50" width="11" height="11" rx="2" ry="2" fill="#1a1a1a" />
  <rect x="110" y="65" width="11" height="11" rx="2" ry="2" fill="#1a1a1a" />
  <rect x="110" y="80" width="11" height="11" rx="2" ry="2" fill="#1a1a1a" />
  <rect x="110" y="95" width="11" height="11" rx="2" ry="2" fill="#1a1a1a" />
  <rect x="110" y="110" width="11" height="11" rx="2" ry="2" fill="#1a1a1a" />
  <rect x="125" y="20" width="11" height="11" rx="2" ry="2" fill="#1a1a1a" />
  <rect x="125" y="35" width="11" height="11" rx="2" ry="2" fill="#1a1a1a" />
  <rect x="125" y="50" width="11" height="11" rx="2" ry="2" fill="#1a1a1a" />
  <rect x="125" y="65" width="11" height="11" rx="2" ry="2" fill="#1a1a1a" />
  <rect x="125" y="80" width="11" height="11" rx="2" ry="2" fill="#1a1a1a" />
  <rect x="125" y="95" width="11" height="11" rx="2" ry="2" fill="#1a1a1a" />
  <rect x="125" y="110" width="11" height="11" rx="2" ry="2" fill="#1a1a1a" />
  <rect x="140" y="20" width="11" height="11" rx="2" ry="2" fill="#1a1a1a" />
  <rect x="140" y="35" width="11" height="11" rx="2" ry="2" fill="#1a1a1a" />
  <rect x="140" y="50" width="11" height="11" rx="2" ry="2" fill="#1a1a1a" />
  <rect x="140" y="65" width="11" height="11" rx="2" ry="2" fill="#1a1a1a" />
  <rect x="140" y="80" width="11" height="11" rx="2" ry="2" fill="#1a1a1a" />
  <rect x="140" y="95" width="11" height="11" rx="2" ry="2" fill="#1a1a1a" />
  <rect x="140" y="110" width="11" height="11" rx="2" ry="2" fill="#1a1a1a" />
  <rect x="155" y="20" width="11" height="11" rx="2" ry="2" fill="#1a1a1a" />
  <rect x="155" y="35" width="11" height="11" rx="2" ry="2" fill="#1a1a1a" />
  <rect x="155" y="50" width="11" height="11" rx="2" ry="2" fill="#1a1a1a" />
  <rect x="155" y="65" width="11" height="11" rx="2" ry="2" fill="#1a1a1a" />
  <rect x="155" y="80" width="11" height="11" rx="2" ry="2" fill="#1a1a1a" />
  <rect x="155" y="95" width="11" height="11" rx="2" ry="2" fill="#1a1a1a" />
  <rect x="155" y="110" width="11" height="11" rx="2" ry="2" fill="#1a1a1a" />
  <rect x="170" y="20" width="11" height="11" rx="2" ry="2" fill="#1a1a1a" />
  <rect x="170" y="35" width="11" height="11" rx="2" ry="2" fill="#1a1a1a" />
  <rect x="170" y="50" width="11" height="11" rx="2" ry="2" fill="#1a1a1a" />
  <rect x="170" y="65" width="11" height="11" rx="2" ry="2" fill="#1a1a1a" />
  <rect x="170" y="80" width="11" height="11" rx="2" ry="2" fill="#1a1a1a" />
  <rect x="170" y="95" width="11" height="11" rx="2" ry="2" fill="#1a1a1a" />
  <rect x="170" y="110" width="11" height="11" rx="2" ry="2" fill="#1a1a1a" />
  <rect x="185" y="20" width="11" height="11" rx="2" ry="2" fill="#1a1a1a" />
  <rect x="185" y="35" width="11" height="11" rx="2" ry="2" fill="#1a1a1a" />
  <rect x="185" y="50" width="11" height="11" rx="2" ry="2" fill="#1a1a1a" />
  <rect x="185" y="65" width="11" height="11" rx="2" ry="2" fill="#1a1a1a" />
  <rect x="185" y="80" width="11" height="11" rx="2" ry="2" fill="#1a1a1a" />
  <rect x="185" y="95" width="11" height="11" rx="2" ry="2" fill="#1a1a1a" />
  <rect x="185" y="110" width="11" height="11" rx="2" ry="2" fill="#1a1a1a" />
  <rect x="200" y="20" width="11" height="11" rx="2" ry="2" fill="#1a1a1a" />
  <rect x="200" y="35" width="11" height="11" rx="2" ry="2" fill="#1a1a1a" />
  <rect x="200" y="50" width="11" height="11" rx="2" ry="2" fill="#1a1a1a" />
  <rect x="200" y="65" width="11" height="11" rx="2" ry="2" fill="#1a1a1a" />
  <rect x="200" y="80" width="11" height="11" rx="2" ry="2" fill="#1a1a1a" />
  <rect x="200" y="95" width="11" height="11" rx="2" ry="2" fill="#1a1a1a" />
  <rect x="200" y="110" width="11" height="11" rx="2" ry="2" fill="#1a1a1a" />
  <rect x="215" y="20" width="11" height="11" rx="2" ry="2" fill="#1a1a1a" />
  <rect x="215" y="35" width="11" height="11" rx="2" ry="2" fill="#1a1a1a" />
  <rect x="215" y="50" width="11" height="11" rx="2" ry="2" fill="#1a1a1a" />
  <rect x="215" y="65" width="11" height="11" rx="2" ry="2" fill="#1a1a1a" />
  <rect x="215" y="80" width="11" height="11" rx="2" ry="2" fill="#1a1a1a" />
  <rect x="215" y="95" width="11" height="11" rx="2" ry="2" fill="#1a1a1a" />
  <rect x="215" y="110" width="11" height="11" rx="2" ry="2" fill="#1a1a1a" />
  <rect x="230" y="20" width="11" height="11" rx="2" ry="2" fill="#1a1a1a" />
  <rect x="230" y="35" width="11" height="11" rx="2" ry="2" fill="#1a1a1a" />
  <rect x="230" y="50" width="11" height="11" rx="2" ry="2" fill="#1a1a1a" />
  <rect x="230" y="65" width="11" height="11" rx="2" ry="2" fill="#1a1a1a" />
  <rect x="230" y="80" width="11" height="11" rx="2" ry="2" fill="#1a1a1a" />
  <rect x="230" y="95" width="11" height="11" rx="2" ry="2" fill="#1a1a1a" />
  <rect x="230" y="110" width="11" height="11" rx="2" ry="2" fill="#1a1a1a" />
  <rect x="245" y="20" width="11" height="11" rx="2" ry="2" fill="#1a1a1a" />
  <rect x="245" y="35" width="11" height="11" rx="2" ry="2" fill="#1a1a1a" />
  <rect x="245" y="50" width="11" height="11" rx="2" ry="2" fill="#1a1a1a" />
  <rect x="245" y="65" width="11" height="11" rx="2" ry="2" fill="#1a1a1a" />
  <rect x="245" y="80" width="11" height="11" rx="2" ry="2" fill="#1a1a1a" />
  <rect x="245" y="95" width="11" height="11" rx="2" ry="2" fill="#1a1a1a" />
  <rect x="245" y="110" width="11" height="11" rx="2" ry="2" fill="#1a1a1a" />
  <rect x="260" y="20" width="11" height="11" rx="2" ry="2" fill="#1a1a1a" />
  <rect x="260" y="35" width="11" height="11" rx="2" ry="2" fill="#1a1a1a" />
  <rect x="260" y="50" width="11" height="11" rx="2" ry="2" fill="#1a1a1a" />
  <rect x="260" y="65" width="11" height="11" rx="2" ry="2" fill="#1a1a1a" />
  <rect x="260" y="80" width="11" height="11" rx="2" ry="2" fill="#1a1a1a" />
  <rect x="260" y="95" width="11" height="11" rx="2" ry="2" fill="#1a1a1a" />
  <rect x="260" y="110" width="11" height="11" rx="2" ry="2" fill="#1a1a1a" />
  <rect x="275" y="20" width="11" height="11" rx="2" ry="2" fill="#1a1a1a" />
  <rect x="275" y="35" width="11" height="11" rx="2" ry="2" fill="#1a1a1a" />
  <rect x="275" y="50" width="11" height="11" rx="2" ry="2" fill="#1a1a1a" />
  <rect x="275" y="65" width="11" height="11" rx="2" ry="2" fill="#1a1a1a" />
  <rect x="275" y="80" width="11" height="11" rx="2" ry="2" fill="#1a1a1a" />
  <rect x="275" y="95" width="11" height="11" rx="2" ry="2" fill="#1a1a1a" />
  <rect x="275" y="110" width="11" height="11" rx="2" ry="2" fill="#1a1a1a" />
  <rect x="290" y="20" width="11" height="11" rx="2" ry="2" fill="#1a1a1a" />
  <rect x="290" y="35" width="11" height="11" rx="2" ry="2" fill="#1a1a1a" />
  <rect x="290" y="50" width="11" height="11" rx="2" ry="2" fill="#1a1a1a" />
  <rect x="290" y="65" width="11" height="11" rx="2" ry="2" fill="#1a1a1a" />
  <rect x="290" y="80" width="11" height="11" rx="2" ry="2" fill="#1a1a1a" />
  <rect x="290" y="95" width="11" height="11" rx="2" ry="2" fill="#1a1a1a" />
  <rect x="290" y="110" width="11" height="11" rx="2" ry="2" fill="#1a1a1a" />
  <rect x="305" y="20" width="11" height="11" rx="2" ry="2" fill="#1a1a1a" />
  <rect x="305" y="35" width="11" height="11" rx="2" ry="2" fill="#1a1a1a" />
  <rect x="305" y="50" width="11" height="11" rx="2" ry="2" fill="#1a1a1a" />
  <rect x="305" y="65" width="11" height="11" rx="2" ry="2" fill="#1a1a1a" />
  <rect x="305" y="80" width="11" height="11" rx="2" ry="2" fill="#1a1a1a" />
  <rect x="305" y="95" width="11" height="11" rx="2" ry="2" fill="#1a1a1a" />
  <rect x="305" y="110" width="11" height="11" rx="2" ry="2" fill="#1a1a1a" />
  <rect x="320" y="20" width="11" height="11" rx="2" ry="2" fill="#1a1a1a" />
  <rect x="320" y="35" width="11" height="11" rx="2" ry="2" fill="#1a1a1a" />
  <rect x="320" y="50" width="11" height="11" rx="2" ry="2" fill="#1a1a1a" />
  <rect x="320" y="65" width="11" height="11" rx="2" ry="2" fill="#1a1a1a" />
  <rect x="320" y="80" width="11" height="11" rx="2" ry="2" fill="#1a1a1a" />
  <rect x="320" y="95" width="11" height="11" rx="2" ry="2" fill="#1a1a1a" />
  <rect x="320" y="110" width="11" height="11" rx="2" ry="2" fill="#1a1a1a" />
  <rect x="335" y="20" width="11" height="11" rx="2" ry="2" fill="#1a1a1a" />
  <rect x="335" y="35" width="11" height="11" rx="2" ry="2" fill="#1a1a1a" />
  <rect x="335" y="50" width="11" height="11" rx="2" ry="2" fill="#1a1a1a" />
  <rect x="335" y="65" width="11" height="11" rx="2" ry="2" fill="#1a1a1a" />
  <rect x="335" y="80" width="11" height="11" rx="2" ry="2" fill="#1a1a1a" />
  <rect x="335" y="95" width="11" height="11" rx="2" ry="2" fill="#1a1a1a" />
  <rect x="335" y="110" width="11" height="11" rx="2" ry="2" fill="#1a1a1a" />
  <rect x="350" y="20" width="11" height="11" rx="2" ry="2" fill="#1a1a1a" />
  <rect x="350" y="35" width="11" height="11" rx="2" ry="2" fill="#1a1a1a" />
  <rect x="350" y="50" width="11" height="11" rx="2" ry="2" fill="#1a1a1a" />
  <rect x="350" y="65" width="11" height="11" rx="2" ry="2" fill="#1a1a1a" />
  <rect x="350" y="80" width="11" height="11" rx="2" ry="2" fill="#1a1a1a" />
  <rect x="350" y="95" width="11" height="11" rx="2" ry="2" fill="#1a1a1a" />
  <rect x="350" y="110" width="11" height="11" rx="2" ry="2" fill="#1a1a1a" />
  <rect x="365" y="20" width="11" height="11" rx="2" ry="2" fill="#1a1a1a" />
  <rect x="365" y="35" width="11" height="11" rx="2" ry="2" fill="#1a1a1a" />
  <rect x="365" y="50" width="11" height="11" rx="2" ry="2" fill="#1a1a1a" />
  <rect x="365" y="65" width="11" height="11" rx="2" ry="2" fill="#1a1a1a" />
  <rect x="365" y="80" width="11" height="11" rx="2" ry="2" fill="#1a1a1a" />
  <rect x="365" y="95" width="11" height="11" rx="2" ry="2" fill="#1a1a1a" />
  <rect x="365" y="110" width="11" height="11" rx="2" ry="2" fill="#1a1a1a" />
  <rect x="380" y="20" width="11" height="11" rx="2" ry="2" fill="#1a1a1a" />
  <rect x="380" y="35" width="11" height="11" rx="2" ry="2" fill="#1a1a1a" />
  <rect x="380" y="50" width="11" height="11" rx="2" ry="2" fill="#1a1a1a" />
  <rect x="380" y="65" width="11" height="11" rx="2" ry="2" fill="#1a1a1a" />
  <rect x="380" y="80" width="11" height="11" rx="2" ry="2" fill="#1a1a1a" />
  <rect x="380" y="95" width="11" height="11" rx="2" ry="2" fill="#1a1a1a" />
  <rect x="380" y="110" width="11" height="11" rx="2" ry="2" fill="#1a1a1a" />
  <rect x="395" y="20" width="11" height="11" rx="2" ry="2" fill="#1a1a1a" />
  <rect x="395" y="35" width="11" height="11" rx="2" ry="2" fill="#1a1a1a" />
  <rect x="395" y="50" width="11" height="11" rx="2" ry="2" fill="#1a1a1a" />
  <rect x="395" y="65" width="11" height="11" rx="2" ry="2" fill="#1a1a1a" />
  <rect x="395" y="80" width="11" height="11" rx="2" ry="2" fill="#1a1a1a" />
  <rect x="395" y="95" width="11" height="11" rx="2" ry="2" fill="#1a1a1a" />
  <rect x="395" y="110" width="11" height="11" rx="2" ry="2" fill="#1a1a1a" />
  <rect x="410" y="20" width="11" height="11" rx="2" ry="2" fill="#1a1a1a" />
  <rect x="410" y="35" width="11" height="11" rx="2" ry="2" fill="#1a1a1a" />
  <rect x="410" y="50" width="11" height="11" rx="2" ry="2" fill="#1a1a1a" />
  <rect x="410" y="65" width="11" height="11" rx="2" ry="2" fill="#1a1a1a" />
  <rect x="410" y="80" width="11" height="11" rx="2" ry="2" fill="#1a1a1a" />
  <rect x="410" y="95" width="11" height="11" rx="2" ry="2" fill="#1a1a1a" />
  <rect x="410" y="110" width="11" height="11" rx="2" ry="2" fill="#1a1a1a" />
  <rect x="425" y="20" width="11" height="11" rx="2" ry="2" fill="#1a1a1a" />
  <rect x="425" y="35" width="11" height="11" rx="2" ry="2" fill="#1a1a1a" />
  <rect x="425" y="50" width="11" height="11" rx="2" ry="2" fill="#1a1a1a" />
  <rect x="425" y="65" width="11" height="11" rx="2" ry="2" fill="#1a1a1a" />
  <rect x="425" y="80" width="11" height="11" rx="2" ry="2" fill="#1a1a1a" />
  <rect x="425" y="95" width="11" height="11" rx="2" ry="2" fill="#1a1a1a" />
  <rect x="425" y="110" width="11" height="11" rx="2" ry="2" fill="#1a1a1a" />
  <rect x="440" y="20" width="11" height="11" rx="2" ry="2" fill="#1a1a1a" />
  <rect x="440" y="35" width="11" height="11" rx="2" ry="2" fill="#1a1a1a" />
  <rect x="440" y="50" width="11" height="11" rx="2" ry="2" fill="#1a1a1a" />
  <rect x="440" y="65" width="11" height="11" rx="2" ry="2" fill="#1a1a1a" />
  <rect x="440" y="80" width="11" height="11" rx="2" ry="2" fill="#1a1a1a" />
  <rect x="440" y="95" width="11" height="11" rx="2" ry="2" fill="#1a1a1a" />
  <rect x="440" y="110" width="11" height="11" rx="2" ry="2" fill="#1a1a1a" />
  <rect x="455" y="20" width="11" height="11" rx="2" ry="2" fill="#1a1a1a" />
  <rect x="455" y="35" width="11" height="11" rx="2" ry="2" fill="#1a1a1a" />
  <rect x="455" y="50" width="11" height="11" rx="2" ry="2" fill="#1a1a1a" />
  <rect x="455" y="65" width="11" height="11" rx="2" ry="2" fill="#1a1a1a" />
  <rect x="455" y="80" width="11" height="11" rx="2" ry="2" fill="#1a1a1a" />
  <rect x="455" y="95" width="11" height="11" rx="2" ry="2" fill="#1a1a1a" />
  <rect x="455" y="110" width="11" height="11" rx="2" ry="2" fill="#1a1a1a" />
  <rect x="470" y="20" width="11" height="11" rx="2" ry="2" fill="#1a1a1a" />
  <rect x="470" y="35" width="11" height="11" rx="2" ry="2" fill="#1a1a1a" />
  <rect x="470" y="50" width="11" height="11" rx="2" ry="2" fill="#1a1a1a" />
  <rect x="470" y="65" width="11" height="11" rx="2" ry="2" fill="#1a1a1a" />
  <rect x="470" y="80" width="11" height="11" rx="2" ry="2" fill="#1a1a1a" />
  <rect x="470" y="95" width="11" height="11" rx="2" ry="2" fill="#1a1a1a" />
  <rect x="470" y="110" width="11" height="11" rx="2" ry="2" fill="#1a1a1a" />
  <rect x="485" y="20" width="11" height="11" rx="2" ry="2" fill="#1a1a1a" />
  <rect x="485" y="35" width="11" height="11" rx="2" ry="2" fill="#1a1a1a" />
  <rect x="485" y="50" width="11" height="11" rx="2" ry="2" fill="#1a1a1a" />
  <rect x="485" y="65" width="11" height="11" rx="2" ry="2" fill="#1a1a1a" />
  <rect x="485" y="80" width="11" height="11" rx="2" ry="2" fill="#1a1a1a" />
  <rect x="485" y="95" width="11" height="11" rx="2" ry="2" fill="#1a1a1a" />
  <rect x="485" y="110" width="11" height="11" rx="2" ry="2" fill="#1a1a1a" />
  <rect x="500" y="20" width="11" height="11" rx="2" ry="2" fill="#1a1a1a" />
  <rect x="500" y="35" width="11" height="11" rx="2" ry="2" fill="#1a1a1a" />
  <rect x="500" y="50" width="11" height="11" rx="2" ry="2" fill="#1a1a1a" />
  <rect x="500" y="65" width="11" height="11" rx="2" ry="2" fill="#1a1a1a" />
  <rect x="500" y="80" width="11" height="11" rx="2" ry="2" fill="#1a1a1a" />
  <rect x="500" y="95" width="11" height="11" rx="2" ry="2" fill="#1a1a1a" />
  <rect x="500" y="110" width="11" height="11" rx="2" ry="2" fill="#1a1a1a" />
  <rect x="515" y="20" width="11" height="11" rx="2" ry="2" fill="#1a1a1a" />
  <rect x="515" y="35" width="11" height="11" rx="2" ry="2" fill="#1a1a1a" />
  <rect x="515" y="50" width="11" height="11" rx="2" ry="2" fill="#1a1a1a" />
  <rect x="515" y="65" width="11" height="11" rx="2" ry="2" fill="#1a1a1a" />
  <rect x="515" y="80" width="11" height="11" rx="2" ry="2" fill="#1a1a1a" />
  <rect x="515" y="95" width="11" height="11" rx="2" ry="2" fill="#1a1a1a" />
  <rect x="515" y="110" width="11" height="11" rx="2" ry="2" fill="#1a1a1a" />
  <rect x="530" y="20" width="11" height="11" rx="2" ry="2" fill="#1a1a1a" />
  <rect x="530" y="35" width="11" height="11" rx="2" ry="2" fill="#1a1a1a" />
  <rect x="530" y="50" width="11" height="11" rx="2" ry="2" fill="#1a1a1a" />
  <rect x="530" y="65" width="11" height="11" rx="2" ry="2" fill="#1a1a1a" />
  <rect x="530" y="80" width="11" height="11" rx="2" ry="2" fill="#1a1a1a" />
  <rect x="530" y="95" width="11" height="11" rx="2" ry="2" fill="#1a1a1a" />
  <rect x="530" y="110" width="11" height="11" rx="2" ry="2" fill="#1a1a1a" />
  <rect x="545" y="20" width="11" height="11" rx="2" ry="2" fill="#1a1a1a" />
  <rect x="545" y="35" width="11" height="11" rx="2" ry="2" fill="#1a1a1a" />
  <rect x="545" y="50" width="11" height="11" rx="2" ry="2" fill="#1a1a1a" />
  <rect x="545" y="65" width="11" height="11" rx="2" ry="2" fill="#1a1a1a" />
  <rect x="545" y="80" width="11" height="11" rx="2" ry="2" fill="#1a1a1a" />
  <rect x="545" y="95" width="11" height="11" rx="2" ry="2" fill="#1a1a1a" />
  <rect x="545" y="110" width="11" height="11" rx="2" ry="2" fill="#1a1a1a" />
  <rect x="560" y="20" width="11" height="11" rx="2" ry="2" fill="#1a1a1a" />
  <rect x="560" y="35" width="11" height="11" rx="2" ry="2" fill="#1a1a1a" />
  <rect x="560" y="50" width="11" height="11" rx="2" ry="2" fill="#1a1a1a" />
  <rect x="560" y="65" width="11" height="11" rx="2" ry="2" fill="#1a1a1a" />
  <rect x="560" y="80" width="11" height="11" rx="2" ry="2" fill="#1a1a1a" />
  <rect x="560" y="95" width="11" height="11" rx="2" ry="2" fill="#1a1a1a" />
  <rect x="560" y="110" width="11" height="11" rx="2" ry="2" fill="#1a1a1a" />
  <rect x="575" y="20" width="11" height="11" rx="2" ry="2" fill="#1a1a1a" />
  <rect x="575" y="35" width="11" height="11" rx="2" ry="2" fill="#1a1a1a" />
  <rect x="575" y="50" width="11" height="11" rx="2" ry="2" fill="#1a1a1a" />
  <rect x="575" y="65" width="11" height="11" rx="2" ry="2" fill="#1a1a1a" />
  <rect x="575" y="80" width="11" height="11" rx="2" ry="2" fill="#1a1a1a" />
  <rect x="575" y="95" width="11" height="11" rx="2" ry="2" fill="#1a1a1a" />
  <rect x="575" y="110" width="11" height="11" rx="2" ry="2" fill="#1a1a1a" />
  <rect x="590" y="20" width="11" height="11" rx="2" ry="2" fill="#1a1a1a" />
  <rect x="590" y="35" width="11" height="11" rx="2" ry="2" fill="#1a1a1a" />
  <rect x="590" y="50" width="11" height="11" rx="2" ry="2" fill="#1a1a1a" />
  <rect x="590" y="65" width="11" height="11" rx="2" ry="2" fill="#1a1a1a" />
  <rect x="590" y="80" width="11" height="11" rx="2" ry="2" fill="#1a1a1a" />
  <rect x="590" y="95" width="11" height="11" rx="2" ry="2" fill="#1a1a1a" />
  <rect x="590" y="110" width="11" height="11" rx="2" ry="2" fill="#1a1a1a" />
  <rect x="605" y="20" width="11" height="11" rx="2" ry="2" fill="#1a1a1a" />
  <rect x="605" y="35" width="11" height="11" rx="2" ry="2" fill="#1a1a1a" />
  <rect x="605" y="50" width="11" height="11" rx="2" ry="2" fill="#1a1a1a" />
  <rect x="605" y="65" width="11" height="11" rx="2" ry="2" fill="#1a1a1a" />
  <rect x="605" y="80" width="11" height="11" rx="2" ry="2" fill="#1a1a1a" />
  <rect x="605" y="95" width="11" height="11" rx="2" ry="2" fill="#1a1a1a" />
  <rect x="605" y="110" width="11" height="11" rx="2" ry="2" fill="#1a1a1a" />
  <rect x="620" y="20" width="11" height="11" rx="2" ry="2" fill="#1a1a1a" />
  <rect x="620" y="35" width="11" height="11" rx="2" ry="2" fill="#1a1a1a" />
  <rect x="620" y="50" width="11" height="11" rx="2" ry="2" fill="#1a1a1a" />
  <rect x="620" y="65" width="11" height="11" rx="2" ry="2" fill="#1a1a1a" />
  <rect x="620" y="80" width="11" height="11" rx="2" ry="2" fill="#1a1a1a" />
  <rect x="620" y="95" width="11" height="11" rx="2" ry="2" fill="#1a1a1a" />
  <rect x="620" y="110" width="11" height="11" rx="2" ry="2" fill="#1a1a1a" />
  <rect x="635" y="20" width="11" height="11" rx="2" ry="2" fill="#1a1a1a" />
  <rect x="635" y="35" width="11" height="11" rx="2" ry="2" fill="#1a1a1a" />
  <rect x="635" y="50" width="11" height="11" rx="2" ry="2" fill="#1a1a1a" />
  <rect x="635" y="65" width="11" height="11" rx="2" ry="2" fill="#1a1a1a" />
  <rect x="635" y="80" width="11" height="11" rx="2" ry="2" fill="#1a1a1a" />
  <rect x="635" y="95" width="11" height="11" rx="2" ry="2" fill="#1a1a1a" />
  <rect x="635" y="110" width="11" height="11" rx="2" ry="2" fill="#1a1a1a" />
  <rect x="650" y="20" width="11" height="11" rx="2" ry="2" fill="#1a1a1a" />
  <rect x="650" y="35" width="11" height="11" rx="2" ry="2" fill="#1a1a1a" />
  <rect x="650" y="50" width="11" height="11" rx="2" ry="2" fill="#1a1a1a" />
  <rect x="650" y="65" width="11" height="11" rx="2" ry="2" fill="#1a1a1a" />
  <rect x="650" y="80" width="11" height="11" rx="2" ry="2" fill="#1a1a1a" />
  <rect x="650" y="95" width="11" height="11" rx="2" ry="2" fill="#1a1a1a" />
  <rect x="650" y="110" width="11" height="11" rx="2" ry="2" fill="#1a1a1a" />
  <rect x="665" y="20" width="11" height="11" rx="2" ry="2" fill="#1a1a1a" />
  <rect x="665" y="35" width="11" height="11" rx="2" ry="2" fill="#1a1a1a" />
  <rect x="665" y="50" width="11" height="11" rx="2" ry="2" fill="#1a1a1a" />
  <rect x="665" y="65" width="11" height="11" rx="2" ry="2" fill="#1a1a1a" />
  <rect x="665" y="80" width="11" height="11" rx="2" ry="2" fill="#1a1a1a" />
  <rect x="665" y="95" width="11" height="11" rx="2" ry="2" fill="#1a1a1a" />
  <rect x="665" y="110" width="11" height="11" rx="2" ry="2" fill="#1a1a1a" />
  <rect x="680" y="20" width="11" height="11" rx="2" ry="2" fill="#1a1a1a" />
  <rect x="680" y="35" width="11" height="11" rx="2" ry="2" fill="#1a1a1a" />
  <rect x="680" y="50" width="11" height="11" rx="2" ry="2" fill="#1a1a1a" />
  <rect x="680" y="65" width="11" height="11" rx="2" ry="2" fill="#1a1a1a" />
  <rect x="680" y="80" width="11" height="11" rx="2" ry="2" fill="#1a1a1a" />
  <rect x="680" y="95" width="11" height="11" rx="2" ry="2" fill="#1a1a1a" />
  <rect x="680" y="110" width="11" height="11" rx="2" ry="2" fill="#1a1a1a" />
  <rect x="695" y="20" width="11" height="11" rx="2" ry="2" fill="#1a1a1a" />
  <rect x="695" y="35" width="11" height="11" rx="2" ry="2" fill="#1a1a1a" />
  <rect x="695" y="50" width="11" height="11" rx="2" ry="2" fill="#1a1a1a" />
  <rect x="695" y="65" width="11" height="11" rx="2" ry="2" fill="#1a1a1a" />
  <rect x="695" y="80" width="11" height="11" rx="2" ry="2" fill="#1a1a1a" />
  <rect x="695" y="95" width="11" height="11" rx="2" ry="2" fill="#1a1a1a" />
  <rect x="695" y="110" width="11" height="11" rx="2" ry="2" fill="#1a1a1a" />
  <rect x="710" y="20" width="11" height="11" rx="2" ry="2" fill="#1a1a1a" />
  <rect x="710" y="35" width="11" height="11" rx="2" ry="2" fill="#1a1a1a" />
  <rect x="710" y="50" width="11" height="11" rx="2" ry="2" fill="#1a1a1a" />
  <rect x="710" y="65" width="11" height="11" rx="2" ry="2" fill="#1a1a1a" />
  <rect x="710" y="80" width="11" height="11" rx="2" ry="2" fill="#1a1a1a" />
  <rect x="710" y="95" width="11" height="11" rx="2" ry="2" fill="#1a1a1a" />
  <rect x="710" y="110" width="11" height="11" rx="2" ry="2" fill="#1a1a1a" />
  <rect x="725" y="20" width="11" height="11" rx="2" ry="2" fill="#1a1a1a" />
  <rect x="725" y="35" width="11" height="11" rx="2" ry="2" fill="#1a1a1a" />
  <rect x="725" y="50" width="11" height="11" rx="2" ry="2" fill="#1a1a1a" />
  <rect x="725" y="65" width="11" height="11" rx="2" ry="2" fill="#1a1a1a" />
  <rect x="725" y="80" width="11" height="11" rx="2" ry="2" fill="#1a1a1a" />
  <rect x="725" y="95" width="11" height="11" rx="2" ry="2" fill="#1a1a1a" />
  <rect x="725" y="110" width="11" height="11" rx="2" ry="2" fill="#1a1a1a" />
  <rect x="740" y="20" width="11" height="11" rx="2" ry="2" fill="#1a1a1a" />
  <rect x="740" y="35" width="11" height="11" rx="2" ry="2" fill="#1a1a1a" />
  <rect x="740" y="50" width="11" height="11" rx="2" ry="2" fill="#1a1a1a" />
  <rect x="740" y="65" width="11" height="11" rx="2" ry="2" fill="#1a1a1a" />
  <rect x="740" y="80" width="11" height="11" rx="2" ry="2" fill="#1a1a1a" />
  <rect x="740" y="95" width="11" height="11" rx="2" ry="2" fill="#1a1a1a" />
  <rect x="740" y="110" width="11" height="11" rx="2" ry="2" fill="#1a1a1a" />
  <rect x="755" y="20" width="11" height="11" rx="2" ry="2" fill="#1a1a1a" />
  <rect x="755" y="35" width="11" height="11" rx="2" ry="2" fill="#1a1a1a" />
  <rect x="755" y="50" width="11" height="11" rx="2" ry="2" fill="#1a1a1a" />
  <rect x="755" y="65" width="11" height="11" rx="2" ry="2" fill="#1a1a1a" />
  <rect x="755" y="80" width="11" height="11" rx="2" ry="2" fill="#1a1a1a" />
  <rect x="755" y="95" width="11" height="11" rx="2" ry="2" fill="#1a1a1a" />
  <rect x="755" y="110" width="11" height="11" rx="2" ry="2" fill="#1a1a1a" />
  <rect x="770" y="20" width="11" height="11" rx="2" ry="2" fill="#1a1a1a" />
  <rect x="770" y="35" width="11" height="11" rx="2" ry="2" fill="#1a1a1a" />
  <rect x="770" y="50" width="11" height="11" rx="2" ry="2" fill="#1a1a1a" />
  <rect x="770" y="65" width="11" height="11" rx="2" ry="2" fill="#1a1a1a" />
  <rect x="770" y="80" width="11" height="11" rx="2" ry="2" fill="#1a1a1a" />
  <rect x="770" y="95" width="11" height="11" rx="2" ry="2" fill="#1a1a1a" />
  <rect x="770" y="110" width="11" height="11" rx="2" ry="2" fill="#1a1a1a" />
  <rect x="785" y="20" width="11" height="11" rx="2" ry="2" fill="#1a1a1a" />
  <rect x="785" y="35" width="11" height="11" rx="2" ry="2" fill="#1a1a1a" />
  <rect x="785" y="50" width="11" height="11" rx="2" ry="2" fill="#b0b0b0" />
  <rect x="785" y="65" width="11" height="11" rx="2" ry="2" fill="#b0b0b0" />
  <rect x="785" y="80" width="11" height="11" rx="2" ry="2" fill="#1a1a1a" />
  <rect x="785" y="95" width="11" height="11" rx="2" ry="2" fill="#1a1a1a" />
  <rect x="785" y="110" width="11" height="11" rx="2" ry="2" fill="#1a1a1a" />
  <rect x="800" y="20" width="11" height="11" rx="2" ry="2" fill="#1a1a1a" />
  <rect x="800" y="35" width="11" height="11" rx="2" ry="2" fill="#1a1a1a" />
  <rect x="800" y="50" width="11" height="11" rx="2" ry="2" fill="#1a1a1a" />
  <rect x="800" y="65" width="11" height="11" rx="2" ry="2" fill="#1a1a1a" />
  <rect x="800" y="80" width="11" height="11" rx="2" ry="2" fill="#1a1a1a" />
  <rect x="800" y="95" width="11" height="11" rx="2" ry="2" fill="#1a1a1a" />
  <rect x="800" y="110" width="11" height="11" rx="2" ry="2" fill="#1a1a1a" />
  
  <rect x="20" y="133" width="795" height="3" rx="1.5" ry="1.5" fill="rgba(200, 200, 200, 0.35)" opacity="0.15" />
  <rect x="20" y="133" width="0" height="3" rx="1.5" ry="1.5" fill="#b0b0b0" opacity="0.6">
    <animate attributeName="width" values="0;795" dur="14s" repeatCount="indefinite" />
  </rect>
  <text x="815" y="177" fill="rgba(200, 200, 200, 0.35)" font-family="Inter, system-ui, sans-serif" font-size="10" font-weight="300" letter-spacing="0.08em" text-anchor="end">Your commits bend spacetime.</text>
</svg>